<svg width="40" height="40" viewBox="0 0 40 40" fill="none" xmlns="http://www.w3.org/2000/svg">
<path d="M20 9.15V34.15M12.9167 14.15H9.16667M14.1667 19.15H9.16667M36.6667 27.9V7.78333C36.6667 5.78333 35.0333 4.3 33.05 4.46667H32.95C29.45 4.76667 24.1333 6.55 21.1667 8.41667L20.8833 8.6C20.4 8.9 19.6 8.9 19.1167 8.6L18.7 8.35C15.7333 6.5 10.4333 4.73333 6.93333 4.45C4.95 4.28333 3.33333 5.78333 3.33333 7.76667V27.9C3.33333 29.5 4.63333 31 6.23333 31.2L6.71667 31.2667C10.3333 31.75 15.9167 33.5833 19.1167 35.3333L19.1833 35.3667C19.6333 35.6167 20.35 35.6167 20.7833 35.3667C23.9833 33.6 29.5833 31.75 33.2167 31.2667L33.7667 31.2C35.3667 31 36.6667 29.5 36.6667 27.9Z" stroke="black" stroke-width="1.5" stroke-linecap="round" stroke-linejoin="round"/>
</svg>
